<?xml version="1.0" encoding="UTF-8"?>
<!DOCTYPE svg PUBLIC "-//W3C//DTD SVG 1.1//EN" "http://www.w3.org/Graphics/SVG/1.1/DTD/svg11.dtd">
<!-- Creator: CorelDRAW -->
<svg xmlns="http://www.w3.org/2000/svg" xml:space="preserve" width="135.485mm" height="135.485mm" version="1.1" style="shape-rendering:geometricPrecision; text-rendering:geometricPrecision; image-rendering:optimizeQuality; fill-rule:evenodd; clip-rule:evenodd"
viewBox="0 0 13548.5 13548.5"
 xmlns:xlink="http://www.w3.org/1999/xlink"
 xmlns:xodm="http://www.corel.com/coreldraw/odm/2003">
 <defs>
  <style type="text/css">
   <![CDATA[
    .fil1 {fill:#FEFFFE}
    .fil0 {fill:url(#id0)}
   ]]>
  </style>
  <linearGradient id="id0" gradientUnits="userSpaceOnUse" x1="3514.48" y1="832.46" x2="10019.76" y2="12717.09">
   <stop offset="0" style="stop-opacity:1; stop-color:#B5FC01"/>
   <stop offset="1" style="stop-opacity:1; stop-color:#91C708"/>
  </linearGradient>
 </defs>
 <g id="Capa_x0020_1">
  <metadata id="CorelCorpID_0Corel-Layer"/>
  <g id="_1574616195312">
   <path class="fil0" d="M3195.14 8812.21c-56.39,-159.28 -158.52,-328.25 -232.17,-508.39 -234.97,-574.78 -332.31,-1205.11 -285.28,-1841.32 62.88,-850.67 373.53,-1538.66 763.43,-2087.29 98.75,-138.95 181.66,-296.56 414.85,-309.77 234,-13.25 375.81,124.33 425.31,298.94 127.82,450.9 -610.75,663.12 -763.45,2046.85 -29.14,264.06 -29.93,1141.9 139.75,1302.11 0.3,432.31 605.29,1212.99 964.72,1524.43 415.94,360.4 994.72,690.41 1731.16,780.82 1636.8,200.93 2778.66,-755.48 3297.77,-1710.1 313.67,-576.83 469.73,-1333.7 337.51,-2083.49 -206.59,-1171.45 -758.89,-1399.92 -754.46,-1751.35 4.98,-395.38 482.03,-539.05 724.16,-281.72 69.53,73.89 195.48,270.94 262.69,372.81 470.84,713.53 677.06,1574.52 636.51,2497.07 -25.39,514.02 -197.68,1111.77 -408.21,1515.49 -125.98,241.59 -220.43,405.75 -367.56,612.14 -73.68,103.34 -133.46,172.83 -208.82,268.1 -170.26,215.2 -533.8,523.97 -768.97,686.7 -200.32,138.61 -370.3,230.97 -605.24,347.48 -226.63,112.4 -1115.38,410.85 -1450.76,377.74 -3.1,-6.2 -3.42,-8.49 -13.61,-9.31 -0.79,-15.16 15.87,-0.48 -40.93,-0.37 -1265.46,184.79 -2755.76,-611.1 -3518.41,-1639.64 -45.08,-60.79 -246.7,-388.83 -279.99,-407.93zm1530.37 4419.29l910.92 230.97c340.75,59.74 658.6,86.58 1051.3,86.57 836.45,-0.03 1351.35,-87.71 2005.56,-270.17 873.03,-243.49 1561.36,-649.2 2251.23,-1162.37 565.84,-420.91 966.98,-910.08 1387.07,-1470.83 91.86,-122.63 149.88,-229.85 230.75,-351.41 622.39,-935.43 961.46,-2248.31 979.05,-3482.12l0 -204.21c-4.78,-323.77 -32.21,-640.22 -83.04,-940.91l-234.5 -933.86c-31.77,-357.19 -569.04,-1353.77 -783.23,-1673.7 -139.93,-209 -531.76,-734.33 -731.2,-935.9 -263.78,-266.59 -1111.78,-1040.53 -1395.55,-1117.5 -108.42,-92.11 -314.21,-196.78 -450.68,-264.65 -172.37,-85.71 -323.34,-161.25 -506.58,-234.35 -353.06,-140.85 -697.63,-264.79 -1105.42,-349.98 -399.15,-83.39 -833.07,-140.24 -1277.2,-156.58l-517.26 0c-290.27,11.01 -580.86,41.28 -865.14,94.64 -1258.89,236.31 -2082.4,648.39 -3017.15,1349.08 -142.4,106.75 -252.31,216.02 -389.18,325.29 -112.86,90.11 -266.83,256.25 -373.68,367.26 -67.37,69.99 -88.69,112.72 -158.25,185.76 -379.25,398.17 -780.95,1082.65 -1016.62,1550.19 -414.7,822.7 -623.24,1755.05 -643.86,2694.44l0 306.94c21.91,1024.64 264.88,2044.37 705.65,2926.16 89.11,178.25 435.81,817.56 561.49,917.35 458.93,768.37 1620.07,1698.18 2393.39,2081.72 218.22,108.24 851.24,412.52 1072.13,432.17zm1616.83 -7051.68c-25.41,-927.04 -1.29,-1995.41 -4.21,-2951.16 -0.99,-323.52 94.08,-560.66 428.21,-552.99 334.52,7.67 406.4,264.7 405.04,579.58 -4.12,956.11 21.13,2006.18 -4.24,2937.22 -58.84,185.61 -169.69,332.57 -401.39,338.3 -235.43,5.82 -376.86,-153 -423.41,-350.95z"/>
   <path class="fil1" d="M3195.14 8812.21c33.29,19.1 234.91,347.14 279.99,407.93 762.65,1028.54 2252.95,1824.43 3518.41,1639.64 280.04,79.59 1264.98,-248.87 1505.3,-368.06 234.94,-116.51 404.92,-208.87 605.24,-347.48 235.17,-162.73 598.71,-471.5 768.97,-686.7 75.36,-95.27 135.14,-164.76 208.82,-268.1 147.13,-206.39 241.58,-370.55 367.56,-612.14 210.53,-403.72 382.82,-1001.47 408.21,-1515.49 40.55,-922.55 -165.67,-1783.54 -636.51,-2497.07 -67.21,-101.87 -193.16,-298.92 -262.69,-372.81 -242.13,-257.33 -719.18,-113.66 -724.16,281.72 -4.43,351.43 547.87,579.9 754.46,1751.35 132.22,749.79 -23.84,1506.66 -337.51,2083.49 -519.11,954.62 -1660.97,1911.03 -3297.77,1710.1 -736.44,-90.41 -1315.22,-420.42 -1731.16,-780.82 -359.43,-311.44 -964.42,-1092.12 -964.72,-1524.43 -169.68,-160.21 -168.89,-1038.05 -139.75,-1302.11 152.7,-1383.73 891.27,-1595.95 763.45,-2046.85 -49.5,-174.61 -191.31,-312.19 -425.31,-298.94 -233.19,13.21 -316.1,170.82 -414.85,309.77 -389.9,548.63 -700.55,1236.62 -763.43,2087.29 -47.03,636.21 50.31,1266.54 285.28,1841.32 73.65,180.14 175.78,349.11 232.17,508.39z"/>
   <path class="fil1" d="M6342.34 6179.82c46.55,197.95 187.98,356.77 423.41,350.95 231.7,-5.73 342.55,-152.69 401.39,-338.3 25.37,-931.04 0.12,-1981.11 4.24,-2937.22 1.36,-314.88 -70.52,-571.91 -405.04,-579.58 -334.13,-7.67 -429.2,229.47 -428.21,552.99 2.92,955.75 -21.2,2024.12 4.21,2951.16z"/>
  </g>
 </g>
</svg>
