<?xml version="1.0" encoding="UTF-8"?>
<!DOCTYPE svg PUBLIC "-//W3C//DTD SVG 1.1//EN" "http://www.w3.org/Graphics/SVG/1.1/DTD/svg11.dtd">
<!-- Creator: CorelDRAW -->
<svg xmlns="http://www.w3.org/2000/svg" xml:space="preserve" width="133.364mm" height="133.364mm" version="1.1" style="shape-rendering:geometricPrecision; text-rendering:geometricPrecision; image-rendering:optimizeQuality; fill-rule:evenodd; clip-rule:evenodd"
viewBox="0 0 13336.4 13336.4"
 xmlns:xlink="http://www.w3.org/1999/xlink"
 xmlns:xodm="http://www.corel.com/coreldraw/odm/2003">
 <defs>
  <style type="text/css">
   <![CDATA[
    .fil1 {fill:#999999}
    .fil0 {fill:#CCCCCC}
   ]]>
  </style>
 </defs>
 <g id="Capa_x0020_1">
  <metadata id="CorelCorpID_0Corel-Layer"/>
  <g id="_2105376109184">
   <circle class="fil0" cx="6661.07" cy="6668.73" r="6668.21"/>
   <path class="fil1" d="M4186.22 6086.21c0,-594.17 -13.7,-784.62 260.46,-1335.18 140.08,-281.26 295.04,-477.49 512.42,-692.44 189.01,-186.89 469.24,-344.72 713.96,-458.34 147.43,-68.45 285.22,-111.7 441.84,-144.31 440.3,-91.71 627.84,-94.31 1065,-5.21 178.14,36.3 311.39,76.24 469.2,149.52 853.09,396.1 1486.84,1188.27 1486.84,2127.75 0,513.74 -2.1,786.65 -238.73,1259.21 -161.83,323.16 -217.06,361.19 -418.02,591.47 -385.12,441.31 -1070.39,787.01 -1655.28,787.01 -699.99,0 -1033.22,-71.05 -1582.69,-436.29 -69.74,-46.35 -111.44,-69.72 -168.29,-124.78 -270.5,-261.98 -445.94,-415.01 -637.47,-795.34 -114.38,-227.12 -249.24,-601.87 -249.24,-923.07z"/>
   <path class="fil1" d="M6370.07 8833.38c843.67,0 1188.2,-4.99 2007.18,267.95 228.84,76.27 407.51,145.41 620.79,252.22l564.63 308.39c75.62,43.85 60.2,39.18 124.91,86.72 351.38,258.14 529.29,382.18 842.56,691.83l760.56 985.48 -329.63 338.9c-1160.99,980.61 -2661.31,1572.07 -4300,1572.07 -1617.81,0 -3100.95,-576.29 -4255.65,-1534.58 -203.04,-197.69 -373.08,-375.79 -373.97,-376.39l639.78 -841.69c480.53,-614.07 1532.9,-1237.64 2233.85,-1469.85 425.04,-140.82 995.74,-281.05 1464.99,-281.05z"/>
  </g>
 </g>
</svg>
